<svg id="Layer_1" data-name="Layer 1" xmlns="http://www.w3.org/2000/svg" viewBox="0 0 185.9 25.81"><defs><style>.cls-1{isolation:isolate;}.cls-2{fill:#fff;}</style></defs><g class="cls-1"><path class="cls-2" d="M3.1,26.4V18.9a.35.35,0,0,1,.4-.4H6.2a3.33,3.33,0,0,1,2.3.7,2.32,2.32,0,0,1,.9,1.9h0a2.38,2.38,0,0,1-.9,2,3.61,3.61,0,0,1-2.4.7H4v2.5c0,.1,0,.3-.1.3a.37.37,0,0,1-.3.1.37.37,0,0,1-.3-.1C3.1,26.6,3.1,26.5,3.1,26.4ZM4,23H6.1a2.86,2.86,0,0,0,1.7-.5,1.61,1.61,0,0,0,.6-1.3h0a1.49,1.49,0,0,0-.6-1.3,2.86,2.86,0,0,0-1.7-.5H4Z" transform="translate(-3.1 -2.99)"/><path class="cls-2" d="M16,26a3.14,3.14,0,0,1-4.6,0,3.17,3.17,0,0,1-.9-2.3h0a3.17,3.17,0,0,1,.9-2.3,3.26,3.26,0,0,1,2.3-1,3.08,3.08,0,0,1,3.2,3.2h0A2.9,2.9,0,0,1,16,26Zm-2.3.1a1.86,1.86,0,0,0,1.6-.7,2.52,2.52,0,0,0,.6-1.7h0a2.19,2.19,0,0,0-.7-1.7,2,2,0,0,0-1.6-.7A1.86,1.86,0,0,0,12,22a2.52,2.52,0,0,0-.6,1.7h0a2.19,2.19,0,0,0,.7,1.7A2.13,2.13,0,0,0,13.7,26.1Z" transform="translate(-3.1 -2.99)"/><path class="cls-2" d="M20.4,26.9a.51.51,0,0,1-.5-.4L18,21.2c0-.1-.1-.2-.1-.3a.35.35,0,0,1,.4-.4.51.51,0,0,1,.5.4l1.6,4.7L22,20.9c.1-.2.2-.4.5-.4h0a.51.51,0,0,1,.5.4l1.6,4.7,1.6-4.7c.1-.2.2-.4.4-.4a.37.37,0,0,1,.3.1.6.6,0,0,1,.1.4.77.77,0,0,1-.1.3L25,26.6a.51.51,0,0,1-.5.4h0a.51.51,0,0,1-.5-.4L22.5,22l-1.6,4.5c-.1.3-.2.4-.5.4Z" transform="translate(-3.1 -2.99)"/><path class="cls-2" d="M33.4,26a3.26,3.26,0,0,1-2.3,1,2.94,2.94,0,0,1-2.2-.9,3.17,3.17,0,0,1-.9-2.3h0a3.17,3.17,0,0,1,.9-2.3,2.88,2.88,0,0,1,2.1-.9,2.58,2.58,0,0,1,2.1.9,3.49,3.49,0,0,1,.8,2.2.35.35,0,0,1-.4.4H29a2.13,2.13,0,0,0,.7,1.5,2.53,2.53,0,0,0,1.5.6,2.41,2.41,0,0,0,1.8-.7.4.4,0,0,1,.7.3C33.6,25.8,33.5,25.9,33.4,26Zm-4.5-2.6h4a2,2,0,0,0-.6-1.5,1.68,1.68,0,0,0-1.4-.6,2,2,0,0,0-1.4.6A3.39,3.39,0,0,0,28.9,23.4Z" transform="translate(-3.1 -2.99)"/><path class="cls-2" d="M35.5,26.4V21a.4.4,0,1,1,.8,0v1.2a2.73,2.73,0,0,1,.9-1.2,2.08,2.08,0,0,1,1.2-.5.37.37,0,0,1,.3.1c.1.1.3.3.3.4a.37.37,0,0,1-.1.3c-.1.1-.2.1-.3.2a3,3,0,0,0-1.6.8,3,3,0,0,0-.6,2v2.1a.43.43,0,0,1-.7.3C35.5,26.6,35.5,26.5,35.5,26.4Z" transform="translate(-3.1 -2.99)"/><path class="cls-2" d="M45.1,26a3.17,3.17,0,0,1-2.3.9,2.94,2.94,0,0,1-2.2-.9,3.17,3.17,0,0,1-.9-2.3h0a3.17,3.17,0,0,1,.9-2.3,2.88,2.88,0,0,1,2.1-.9,2.58,2.58,0,0,1,2.1.9,3.49,3.49,0,0,1,.8,2.2.35.35,0,0,1-.4.4H40.7a2.13,2.13,0,0,0,.7,1.5,2.53,2.53,0,0,0,1.5.6,2.41,2.41,0,0,0,1.8-.7.4.4,0,0,1,.7.3Zm-4.5-2.6h4a2,2,0,0,0-.6-1.5,1.68,1.68,0,0,0-1.4-.6,2,2,0,0,0-1.4.6A3.39,3.39,0,0,0,40.6,23.4Z" transform="translate(-3.1 -2.99)"/><path class="cls-2" d="M53.1,18.5v7.9a.4.4,0,1,1-.8,0v-.8A2.81,2.81,0,0,1,49.9,27a2.88,2.88,0,0,1-2.1-.9,3.17,3.17,0,0,1-.9-2.3h0a3,3,0,0,1,.9-2.3,2.88,2.88,0,0,1,2.1-.9,2.71,2.71,0,0,1,2.4,1.3V18.6a.43.43,0,0,1,.7-.3C53.1,18.2,53.1,18.3,53.1,18.5ZM50,21.3a2.45,2.45,0,0,0-1.6.6,2.35,2.35,0,0,0-.6,1.7h0a2.35,2.35,0,0,0,.6,1.7,2.06,2.06,0,0,0,3.1,0,2.61,2.61,0,0,0,.7-1.7h0a2.06,2.06,0,0,0-.7-1.7A2,2,0,0,0,50,21.3Z" transform="translate(-3.1 -2.99)"/><path class="cls-2" d="M58.8,26.4V18.5a.37.37,0,0,1,.1-.3c.1-.2.2-.2.3-.2a.35.35,0,0,1,.4.4v3.4A2.81,2.81,0,0,1,62,20.4a2.88,2.88,0,0,1,2.1.9,3.17,3.17,0,0,1,.9,2.3h0a3,3,0,0,1-.9,2.3,2.88,2.88,0,0,1-2.1.9,2.71,2.71,0,0,1-2.4-1.3v.8a.43.43,0,0,1-.7.3C58.8,26.5,58.8,26.5,58.8,26.4Zm3.1-.3a2.45,2.45,0,0,0,1.6-.6,2.35,2.35,0,0,0,.6-1.7h0a2.35,2.35,0,0,0-.6-1.7,2.06,2.06,0,0,0-3.1,0,2.61,2.61,0,0,0-.7,1.7h0a2.06,2.06,0,0,0,.7,1.7A2,2,0,0,0,61.9,26.1Z" transform="translate(-3.1 -2.99)"/><path class="cls-2" d="M67.4,28.8a3.55,3.55,0,0,1-1-.2c-.2-.1-.3-.2-.3-.4a.35.35,0,0,1,.4-.4h.2a1.48,1.48,0,0,0,.7.1.91.91,0,0,0,.7-.3,2.18,2.18,0,0,0,.5-.8v-.1L66,21.2c0-.1-.1-.2-.1-.3a.35.35,0,0,1,.4-.4.51.51,0,0,1,.5.4L69,25.8l1.9-4.9c.1-.2.2-.3.4-.3a.35.35,0,0,1,.4.4v.2L69.5,27a3.62,3.62,0,0,1-.9,1.3A1.66,1.66,0,0,1,67.4,28.8Z" transform="translate(-3.1 -2.99)"/></g><path class="cls-2" d="M85.1,26.9c2.4,0,4.3-1.4,4.3-3.6h0c0-2.2-2.1-2.9-4.1-3.5-1.8-.5-3.5-1-3.5-2.4h0c0-1.2,1.1-2.2,2.8-2.2a7.42,7.42,0,0,1,3.5,1c.1,0,.2.1.3.1a.65.65,0,0,0,.6-.6.62.62,0,0,0-.3-.5,8.31,8.31,0,0,0-4-1.1c-2.4,0-4.1,1.4-4.1,3.4h0c0,2.2,2.2,2.8,4.3,3.4,1.7.5,3.3,1,3.3,2.5h0c0,1.4-1.3,2.4-3,2.4a6.77,6.77,0,0,1-4.1-1.4c-.1-.1-.2-.1-.4-.1a.65.65,0,0,0-.6.6.76.76,0,0,0,.2.5,8.54,8.54,0,0,0,4.8,1.5Zm7.4-.7a.6.6,0,1,0,1.2,0V19.5a4.27,4.27,0,0,1,4-4.5c2.2,0,3.6,1.6,3.6,4.2v7a.6.6,0,0,0,1.2,0V19.5c0-2.8,1.8-4.4,3.9-4.4,2.3,0,3.7,1.6,3.7,4.2v6.9a.6.6,0,1,0,1.2,0v-7c0-3.1-1.8-5.2-4.8-5.2a5,5,0,0,0-4.5,2.7,4.61,4.61,0,0,0-8.3-.2V14.8a.58.58,0,0,0-.6-.6.65.65,0,0,0-.6.6V26.2Zm26.6.8a5.77,5.77,0,0,0,4.8-2.4v1.6a.53.53,0,0,0,.6.6.58.58,0,0,0,.6-.6V19a4.46,4.46,0,0,0-1.3-3.5,5.3,5.3,0,0,0-3.9-1.4,10.72,10.72,0,0,0-4.1.9c-.1,0-.3.2-.3.5a.65.65,0,0,0,.6.6.37.37,0,0,0,.3-.1,7.84,7.84,0,0,1,3.5-.8c2.6,0,4.1,1.3,4.1,3.8v.5a15.83,15.83,0,0,0-4.1-.5c-3.2,0-5.4,1.5-5.4,4.1h0c-.2,2.6,2.3,3.9,4.6,3.9Zm.1-1.1c-1.9,0-3.6-1-3.6-2.9h0c0-1.7,1.5-2.9,4.1-2.9a14.45,14.45,0,0,1,4.2.6V22c0,2.3-2.2,3.9-4.7,3.9Zm9.7.3a.58.58,0,0,0,.6.6.65.65,0,0,0,.6-.6V21.6c0-4,2.4-6,5-6.2.4,0,.6-.3.6-.7a.67.67,0,0,0-.6-.7,5.89,5.89,0,0,0-5,3.7v-3a.58.58,0,0,0-.6-.6.65.65,0,0,0-.6.6V26.2Zm13.7.5a4.84,4.84,0,0,0,1.8-.3.66.66,0,0,0,.4-.5.54.54,0,0,0-.5-.5,7.1,7.1,0,0,1-1.4.2,2.19,2.19,0,0,1-2.5-2.4v-8h3.9a.56.56,0,0,0,.6-.5.65.65,0,0,0-.6-.6h-3.9V10.6a.6.6,0,1,0-1.2,0V14h-1.3a.56.56,0,0,0-.6.5.65.65,0,0,0,.6.6h1.3v8.2a3.1,3.1,0,0,0,3.4,3.4Z" transform="translate(-3.1 -2.99)"/><path class="cls-2" d="M80.4,11.4s.1.8.9,0L85,7.8s.5-.5,0-.9L81.4,3.3s-.8-.7-.9,0l-.1,8.1" transform="translate(-3.1 -2.99)"/><path class="cls-2" d="M156-5.4" transform="translate(-3.1 -2.99)"/><path class="cls-2" d="M165.1,26.8a6.19,6.19,0,0,1-6.2-6.3h0a6.2,6.2,0,1,1,12.4,0h0A6.13,6.13,0,0,1,165.1,26.8Zm0-11.9a5.32,5.32,0,0,0-5.3,5.5h0a5.41,5.41,0,0,0,5.3,5.6,5.32,5.32,0,0,0,5.3-5.5h0A5.41,5.41,0,0,0,165.1,14.9ZM152.5,26.8a8.07,8.07,0,0,1-4.7-1.6,1,1,0,0,1-.1-.3.43.43,0,0,1,.4-.4.37.37,0,0,1,.3.1,7.25,7.25,0,0,0,4.3,1.5c1.9,0,3.2-1.1,3.2-2.6h0c0-1.7-2-2.3-3.4-2.7h-.1c-2-.6-4-1.2-4-3.2h0c0-1.9,1.6-3.2,3.9-3.2a7.94,7.94,0,0,1,3.9,1.1.52.52,0,0,1,.2.4.43.43,0,0,1-.4.4c-.1,0-.2,0-.2-.1a7.17,7.17,0,0,0-3.6-1.1c-1.8,0-3,1-3,2.4h0c0,1.6,1.9,2.1,3.6,2.6,2.1.6,4,1.3,4,3.3h0C156.6,25.4,154.9,26.8,152.5,26.8Zm34.5,0a3,3,0,0,1-3.3-3.2V15.3h-1.5a.43.43,0,0,1-.4-.4c0-.2.2-.3.4-.3h1.5V10.9a.4.4,0,0,1,.8,0v3.7h4.1a.43.43,0,0,1,.4.4c0,.2-.2.3-.4.3h-4.1v8.2c0,1.7.9,2.6,2.7,2.6a2.87,2.87,0,0,0,1.2-.2h.2a.32.32,0,0,1,.3.3c0,.1,0,.2-.3.3A5,5,0,0,1,187,26.8Zm-11.4-.2a.43.43,0,0,1-.4-.4v-11h-1.5a.43.43,0,0,1-.4-.4c0-.2.2-.3.4-.3h1.5V13.1a4.6,4.6,0,0,1,1-3.1,3.33,3.33,0,0,1,2.5-.9,5.9,5.9,0,0,1,1.4.2c.2,0,.3.2.3.4s-.2.3-.4.3h-.1a5.07,5.07,0,0,0-1.3-.2q-2.7,0-2.7,3.3v1.4H180a.43.43,0,0,1,.4.4c0,.2-.2.3-.4.3h-4v11A.37.37,0,0,1,175.6,26.6Z" transform="translate(-3.1 -2.99)"/></svg>