<?xml version="1.0" encoding="utf-8"?>
<!-- Generator: Adobe Illustrator 24.0.1, SVG Export Plug-In . SVG Version: 6.00 Build 0)  -->
<svg version="1.1" id="Layer_1" xmlns="http://www.w3.org/2000/svg" xmlns:xlink="http://www.w3.org/1999/xlink" x="0px" y="0px"
	 viewBox="0 0 209 132" style="enable-background:new 0 0 209 132;" xml:space="preserve">
<style type="text/css">
	.st0{clip-path:url(#SVGID_2_);}
	.st1{fill:url(#SVGID_3_);}
	.st2{fill:#00699F;}
	.st3{opacity:0.4;fill:#0095D9;enable-background:new    ;}
	.st4{fill:#0095D9;}
</style>
<title>Artboard 1</title>
<g>
	<defs>
		<path id="SVGID_1_" d="M115.1,3c-12.2,0-22.9,5.9-28.8,14.8H86c-11.3,0-21.1,6.2-25.4,15.1C46.7,34.2,35.8,45,35.8,58.1
			c0.1,6.3,2.6,12.3,7,16.7c3.6-0.6,7.3-1.2,11.1-1.7c-5.6-2.9-9.3-8.3-9.3-14.5c0-9.3,8.2-16.8,18.4-16.8c1.4,0,2.7,0.1,4.1,0.4
			c0.8-8.6,8.7-15.4,18.3-15.4c1.6,0,3.2,0.2,4.7,0.6c3.2-9.5,12.9-16.4,24.4-16.4c12,0,22.1,7.7,24.7,17.9
			c13.8,0.3,24.9,10.5,24.9,23.2c0,8.9-5.5,16.6-13.6,20.5c4.3,0.5,8.6,1.1,12.6,1.7c6.2-5.5,9.7-13.4,9.8-21.7
			c0-14.7-11.3-27-26.5-30C141.6,11.2,129.4,3,115.1,3z"/>
	</defs>
	<clipPath id="SVGID_2_">
		<use xlink:href="#SVGID_1_"  style="overflow:visible;"/>
	</clipPath>
	<g class="st0">
		
			<linearGradient id="SVGID_3_" gradientUnits="userSpaceOnUse" x1="-177.9054" y1="-520.4631" x2="-175.7154" y2="-520.4631" gradientTransform="matrix(-8.6094 -45.5638 45.5638 -8.6094 22297.1035 -12494.3896)">
			<stop  offset="0" style="stop-color:#00ADEE"/>
			<stop  offset="0" style="stop-color:#00689E"/>
			<stop  offset="0.17" style="stop-color:#1276A9"/>
			<stop  offset="0.51" style="stop-color:#419BC7"/>
			<stop  offset="0.99" style="stop-color:#8CD6F6"/>
			<stop  offset="1" style="stop-color:#8DD7F7"/>
		</linearGradient>
		<polygon class="st1" points="22.7,5.5 168.2,-22 186,72.3 40.5,99.8 		"/>
	</g>
</g>
<g>
	<g>
		<path class="st2" d="M202.1,83.5c-23.2-8-58.2-13.5-97.4-13.5S30.4,75.5,7.3,83.5c32.3-4.1,64.9-6.1,97.4-6
			C137.2,77.4,169.8,79.4,202.1,83.5"/>
	</g>
</g>
<g>
	<path class="st3" d="M98.7,88.6c-0.2-0.8-1.4-0.9-1.7,0c-1.4,4.5-4.3,5.7-4.3,8.9c0,2.8,2.3,5.1,5.1,5.1c2.8,0,5.1-2.3,5.1-5.1
		C103,94.3,100.1,93.2,98.7,88.6z M87.5,106.2c-1.4,4.5-4.3,5.7-4.3,8.9c0,2.8,2.3,5.1,5.1,5.1s5.1-2.3,5.1-5.1
		c0-3.2-2.9-4.4-4.3-8.9C89,105.4,87.8,105.3,87.5,106.2z"/>
	<path class="st4" d="M114.4,98.2c3.1,10,9.8,12.6,9.8,19.6c0,6.2-5.2,11.2-11.7,11.2c-6.5,0-11.7-5-11.7-11.2c0-7,6.6-9.7,9.8-19.6
		C111.2,96.3,113.9,96.4,114.4,98.2L114.4,98.2z"/>
</g>
<g>
	<path class="st3" d="M49.1,88.6c-0.2-0.8-1.4-0.9-1.7,0c-1.4,4.5-4.3,5.7-4.3,8.9c0,2.8,2.3,5.1,5.1,5.1c2.8,0,5.1-2.3,5.1-5.1
		C53.4,94.4,50.5,93.2,49.1,88.6z M37.9,106.2c-1.4,4.5-4.3,5.7-4.3,8.9c0,2.8,2.3,5.1,5.1,5.1c2.8,0,5.1-2.3,5.1-5.1
		c0-3.2-2.9-4.4-4.3-8.9C39.4,105.4,38.2,105.3,37.9,106.2z"/>
	<path class="st4" d="M64.8,98.2c3.1,10,9.8,12.6,9.8,19.6c0,6.2-5.2,11.2-11.7,11.2s-11.7-5-11.7-11.2c0-7,6.6-9.7,9.8-19.6
		C61.5,96.3,64.3,96.4,64.8,98.2L64.8,98.2z"/>
</g>
<g>
	<path class="st3" d="M145.5,88.6c-0.2-0.8-1.4-0.9-1.7,0c-1.4,4.5-4.3,5.7-4.3,8.9c0,2.8,2.3,5.1,5.1,5.1c2.8,0,5.1-2.3,5.1-5.1
		C149.8,94.4,146.9,93.2,145.5,88.6z M134.3,106.2c-1.4,4.5-4.3,5.7-4.3,8.9c0,2.8,2.3,5.1,5.1,5.1c2.8,0,5.1-2.3,5.1-5.1
		c0-3.2-2.9-4.4-4.3-8.9C135.8,105.4,134.6,105.3,134.3,106.2z"/>
	<path class="st4" d="M161.2,98.2c3.1,10,9.8,12.6,9.8,19.6c0,6.2-5.2,11.2-11.7,11.2c-6.5,0-11.7-5-11.7-11.2c0-7,6.6-9.7,9.8-19.6
		C157.9,96.3,160.7,96.4,161.2,98.2L161.2,98.2z"/>
</g>
</svg>
