<?xml version="1.0" encoding="utf-8"?>
<!-- Generator: Adobe Illustrator 25.0.1, SVG Export Plug-In . SVG Version: 6.00 Build 0)  -->
<svg version="1.1" id="Layer_1" xmlns="http://www.w3.org/2000/svg" xmlns:xlink="http://www.w3.org/1999/xlink" x="0px" y="0px"
	 viewBox="0 0 95 13" style="enable-background:new 0 0 95 13;" xml:space="preserve">
<style type="text/css">
	.st0{clip-path:url(#SVGID_2_);fill:url(#SVGID_3_);}
	.st1{fill:#0068A0;}
	.st2{fill:#009DD5;}
</style>
<g>
	<defs>
		<path id="SVGID_1_" d="M17.7,0c-2,0-3.8,1-4.8,2.4c0,0,0,0,0,0c-1.9,0-3.5,1-4.2,2.5C6.4,5.1,4.6,6.9,4.6,9c0,1.1,0.5,2,1.2,2.7
			c0.6-0.1,1.2-0.2,1.8-0.3C6.7,11,6,10.1,6,9.1c0-1.5,1.4-2.8,3.1-2.8c0.2,0,0.5,0,0.7,0.1c0.1-1.4,1.4-2.5,3-2.5
			c0.3,0,0.5,0,0.8,0.1c0.5-1.6,2.1-2.7,4-2.7c2,0,3.7,1.3,4.1,2.9c2.3,0,4.1,1.7,4.1,3.8c0,1.5-0.9,2.7-2.3,3.4
			c0.7,0.1,1.4,0.2,2.1,0.3c1-0.9,1.6-2.2,1.6-3.5c0-2.4-1.9-4.4-4.4-4.9C22.1,1.3,20.1,0,17.7,0z"/>
	</defs>
	<clipPath id="SVGID_2_">
		<use xlink:href="#SVGID_1_"  style="overflow:visible;"/>
	</clipPath>
	
		<linearGradient id="SVGID_3_" gradientUnits="userSpaceOnUse" x1="1.8893" y1="100.2575" x2="2.3182" y2="100.2575" gradientTransform="matrix(-7.2878 -38.2041 -38.2041 7.2878 3861.6658 -643.7227)">
		<stop  offset="0" style="stop-color:#00AEEF"/>
		<stop  offset="4.045450e-03" style="stop-color:#00689F"/>
		<stop  offset="0.1729" style="stop-color:#1276AA"/>
		<stop  offset="0.5118" style="stop-color:#419BC8"/>
		<stop  offset="0.9857" style="stop-color:#8CD6F7"/>
		<stop  offset="1" style="stop-color:#8ED8F8"/>
	</linearGradient>
	<polygon class="st0" points="5.4,16 2.4,0.4 26.5,-4.2 29.5,11.3 	"/>
</g>
<path class="st1" d="M32.2,13.2C28.3,11.9,22.5,11,16,11S3.7,11.9-0.2,13.2c4.6-0.6,10.2-1,16.2-1S27.6,12.6,32.2,13.2"/>
<g>
	<path class="st1" d="M34.4,10.8V3.1c0-0.2,0.1-0.4,0.2-0.6c0.2-0.2,0.4-0.2,0.6-0.2H38c1.1,0,1.9,0.3,2.6,0.8c0.6,0.6,1,1.3,1,2.3
		v0c0,1-0.4,1.8-1.1,2.3c-0.7,0.6-1.6,0.8-2.7,0.8H36v2.2c0,0.2-0.1,0.4-0.2,0.6c-0.2,0.2-0.3,0.2-0.6,0.2s-0.4-0.1-0.6-0.2
		C34.5,11.2,34.4,11,34.4,10.8z M36,7.1h1.9c0.6,0,1.1-0.2,1.5-0.5c0.4-0.3,0.5-0.7,0.5-1.2v0c0-0.5-0.2-0.9-0.5-1.2
		c-0.4-0.3-0.8-0.4-1.5-0.4H36V7.1z"/>
	<path class="st1" d="M43,10.8V5.3c0-0.2,0.1-0.4,0.2-0.6c0.2-0.2,0.3-0.2,0.6-0.2c0.2,0,0.4,0.1,0.6,0.2s0.2,0.3,0.2,0.6V6
		c0.2-0.5,0.5-0.8,0.8-1.1c0.3-0.3,0.6-0.4,1-0.4c0.2,0,0.4,0.1,0.6,0.2c0.1,0.1,0.2,0.3,0.2,0.6c0,0.2-0.1,0.4-0.2,0.5
		C46.9,5.9,46.7,6,46.5,6c-0.6,0.1-1.1,0.4-1.4,0.8c-0.3,0.5-0.5,1.1-0.5,1.9v2.1c0,0.2-0.1,0.4-0.2,0.6c-0.2,0.2-0.3,0.2-0.6,0.2
		c-0.2,0-0.4-0.1-0.6-0.2C43.1,11.2,43,11,43,10.8z"/>
	<path class="st1" d="M50.1,11.7c-0.7,0-1.3-0.2-1.8-0.6s-0.7-0.9-0.7-1.6v0c0-0.7,0.3-1.3,0.8-1.7c0.5-0.4,1.2-0.6,2.1-0.6
		c0.6,0,1.3,0.1,1.9,0.3V7.4c0-0.5-0.1-0.9-0.4-1.1s-0.7-0.4-1.3-0.4c-0.6,0-1.1,0.1-1.5,0.3c-0.1,0-0.2,0-0.3,0
		c-0.2,0-0.3-0.1-0.5-0.2s-0.2-0.3-0.2-0.5c0-0.3,0.1-0.5,0.4-0.6c0.7-0.3,1.5-0.4,2.2-0.4c1,0,1.8,0.3,2.3,0.8
		C53.7,5.7,54,6.4,54,7.4v3.4c0,0.2-0.1,0.4-0.2,0.5c-0.2,0.1-0.3,0.2-0.6,0.2c-0.2,0-0.4-0.1-0.6-0.2s-0.2-0.3-0.2-0.5v-0.3
		C51.8,11.3,51.1,11.7,50.1,11.7z M50.6,10.5c0.5,0,1-0.1,1.3-0.4c0.4-0.3,0.5-0.6,0.5-1.1V8.5c-0.5-0.2-1-0.3-1.6-0.3
		c-0.5,0-0.9,0.1-1.2,0.3c-0.3,0.2-0.4,0.5-0.4,0.9v0c0,0.3,0.1,0.6,0.4,0.8S50.2,10.5,50.6,10.5z"/>
	<path class="st1" d="M59.1,11.7c-1,0-1.9-0.4-2.6-1.1s-1-1.6-1-2.6v0c0-1,0.3-1.9,1-2.6c0.7-0.7,1.6-1.1,2.6-1.1
		c1,0,1.8,0.3,2.4,0.9c0.2,0.1,0.3,0.3,0.3,0.6c0,0.2-0.1,0.4-0.2,0.5s-0.3,0.2-0.5,0.2c-0.2,0-0.3-0.1-0.5-0.2
		c-0.5-0.4-1-0.6-1.5-0.6c-0.6,0-1.1,0.2-1.4,0.6c-0.4,0.4-0.6,1-0.6,1.6v0c0,0.6,0.2,1.2,0.6,1.6c0.4,0.4,0.9,0.6,1.5,0.6
		c0.6,0,1.1-0.2,1.6-0.6c0.1-0.1,0.3-0.2,0.4-0.2c0.2,0,0.4,0.1,0.5,0.2c0.1,0.1,0.2,0.3,0.2,0.5c0,0.2-0.1,0.4-0.2,0.5
		C61,11.4,60.1,11.7,59.1,11.7z"/>
</g>
<g>
	<path class="st2" d="M66.9,11.7c-1.3,0-2.4-0.4-3.5-1.2c-0.2-0.2-0.3-0.4-0.3-0.6c0-0.2,0.1-0.4,0.2-0.5c0.2-0.1,0.3-0.2,0.5-0.2
		c0.2,0,0.3,0,0.5,0.1c0.8,0.6,1.7,1,2.6,1c0.5,0,0.9-0.1,1.2-0.3s0.4-0.5,0.4-0.8v0c0-0.3-0.1-0.6-0.4-0.8s-0.8-0.4-1.7-0.6
		c-0.5-0.1-1-0.3-1.3-0.4s-0.7-0.3-1-0.5c-0.3-0.2-0.5-0.5-0.6-0.8c-0.1-0.3-0.2-0.7-0.2-1.1v0c0-0.8,0.3-1.4,0.9-1.9
		c0.6-0.5,1.4-0.7,2.3-0.7c1.1,0,2.1,0.3,2.9,0.9c0.2,0.1,0.4,0.3,0.4,0.6c0,0.2-0.1,0.4-0.2,0.5c-0.1,0.1-0.3,0.2-0.5,0.2
		c-0.2,0-0.3,0-0.4-0.1c-0.7-0.5-1.4-0.7-2.1-0.7c-0.5,0-0.8,0.1-1.1,0.3S65,4.3,65,4.7v0c0,0.4,0.1,0.6,0.4,0.8
		c0.3,0.2,0.9,0.4,1.8,0.6c1,0.2,1.8,0.6,2.3,1c0.5,0.4,0.7,1,0.7,1.7v0c0,0.9-0.3,1.5-0.9,2C68.7,11.4,67.9,11.7,66.9,11.7z"/>
	<path class="st2" d="M78,5.3v5.5c0,0.2-0.1,0.4-0.2,0.6c-0.2,0.2-0.3,0.2-0.6,0.2s-0.4-0.1-0.6-0.2c-0.2-0.2-0.2-0.3-0.2-0.6v-0.4
		c-0.6,0.8-1.3,1.2-2.2,1.2c-0.8,0-1.4-0.2-1.8-0.7c-0.4-0.5-0.7-1.1-0.7-2V5.3c0-0.2,0.1-0.4,0.2-0.6s0.3-0.2,0.6-0.2
		c0.2,0,0.4,0.1,0.6,0.2c0.2,0.2,0.2,0.3,0.2,0.6v3.2c0,0.5,0.1,1,0.4,1.3c0.3,0.3,0.6,0.4,1.1,0.4c0.5,0,0.8-0.2,1.1-0.5
		c0.3-0.3,0.4-0.7,0.4-1.3V5.3c0-0.2,0.1-0.4,0.2-0.6c0.2-0.2,0.3-0.2,0.6-0.2c0.2,0,0.4,0.1,0.6,0.2S78,5,78,5.3z"/>
	<path class="st2" d="M79.8,2.7L79.8,2.7c0-0.3,0.1-0.5,0.3-0.6c0.2-0.1,0.4-0.2,0.7-0.2s0.5,0.1,0.7,0.2s0.3,0.3,0.3,0.6v0.1
		c0,0.2-0.1,0.4-0.3,0.6S81,3.5,80.7,3.5S80.2,3.5,80,3.3C79.9,3.2,79.8,3,79.8,2.7z M79.9,10.8V5.3c0-0.2,0.1-0.4,0.2-0.6
		s0.3-0.2,0.6-0.2s0.4,0.1,0.6,0.2s0.2,0.3,0.2,0.6v5.5c0,0.2-0.1,0.4-0.2,0.6c-0.2,0.2-0.3,0.2-0.6,0.2c-0.2,0-0.4-0.1-0.6-0.2
		C80,11.2,79.9,11,79.9,10.8z"/>
	<path class="st2" d="M85.9,11.6c-1.3,0-2-0.7-2-2.1V5.9h-0.3c-0.2,0-0.4-0.1-0.5-0.2c-0.1-0.1-0.2-0.3-0.2-0.5
		c0-0.2,0.1-0.4,0.2-0.5c0.1-0.1,0.3-0.2,0.5-0.2h0.3V3.3c0-0.2,0.1-0.4,0.2-0.6s0.3-0.2,0.6-0.2s0.4,0.1,0.6,0.2s0.2,0.3,0.2,0.6
		v1.2h1.3c0.2,0,0.4,0.1,0.5,0.2s0.2,0.3,0.2,0.5c0,0.2-0.1,0.4-0.2,0.5c-0.1,0.1-0.3,0.2-0.5,0.2h-1.3v3.4c0,0.6,0.3,0.9,0.9,0.9
		c0.1,0,0.2,0,0.2,0c0.1,0,0.1,0,0.2,0c0.2,0,0.3,0.1,0.5,0.2c0.1,0.1,0.2,0.3,0.2,0.5c0,0.3-0.1,0.5-0.4,0.6
		C86.6,11.6,86.3,11.6,85.9,11.6z"/>
	<path class="st2" d="M94.2,10.8c-0.7,0.6-1.5,0.9-2.5,0.9c-1,0-1.9-0.3-2.6-1c-0.7-0.7-1-1.5-1-2.6v0c0-1,0.3-1.9,1-2.6
		c0.6-0.7,1.5-1.1,2.4-1.1c0.7,0,1.3,0.2,1.8,0.5c0.5,0.4,0.9,0.8,1.1,1.3c0.2,0.5,0.4,1,0.4,1.6c0,0.2-0.1,0.4-0.2,0.5
		c-0.1,0.1-0.3,0.2-0.5,0.2h-4.4c0.1,0.6,0.3,1,0.7,1.3c0.4,0.3,0.8,0.5,1.3,0.5c0.6,0,1.2-0.2,1.7-0.6c0.1-0.1,0.3-0.1,0.4-0.1
		c0.2,0,0.3,0.1,0.5,0.2c0.1,0.1,0.2,0.3,0.2,0.5C94.5,10.5,94.4,10.6,94.2,10.8z M89.7,7.5h3.6c-0.1-0.5-0.2-1-0.5-1.3
		c-0.3-0.3-0.7-0.5-1.2-0.5c-0.5,0-0.9,0.2-1.2,0.5C90,6.5,89.8,7,89.7,7.5z"/>
</g>
</svg>
