<?xml version="1.0" encoding="utf-8"?>
<!-- Generator: Adobe Illustrator 24.0.1, SVG Export Plug-In . SVG Version: 6.00 Build 0)  -->
<svg version="1.1" id="Layer_1" xmlns="http://www.w3.org/2000/svg" xmlns:xlink="http://www.w3.org/1999/xlink" x="0px" y="0px"
	 viewBox="0 0 321.2 152.5" style="enable-background:new 0 0 321.2 152.5;" xml:space="preserve">
<style type="text/css">
	.st0{fill:#FFFFFF;}
	.st1{clip-path:url(#SVGID_2_);}
	.st2{clip-path:url(#SVGID_4_);}
</style>
<title>Artboard 1</title>
<path class="st0" d="M6.1,143.6v-39.4c0-2.3,1.8-4.2,4.1-4.2c0,0,0.1,0,0.1,0h14.5c5.5,0,9.9,1.4,13.1,4.3c3.3,2.9,5.1,7.1,4.9,11.5
	v0.1c0,5.1-1.8,9.1-5.4,11.9c-3.6,2.8-8.1,4.3-13.6,4.3h-9.4v11.4c0,2.2-1.7,4.1-4,4.1c-0.1,0-0.1,0-0.2,0c-1.1,0-2.2-0.4-3-1.2
	C6.5,145.7,6.1,144.7,6.1,143.6z M14.4,124.6h9.7c2.7,0.1,5.3-0.7,7.5-2.4c1.8-1.5,2.8-3.7,2.8-6.1V116c0.1-2.4-0.9-4.7-2.7-6.3
	c-2.2-1.6-4.8-2.4-7.5-2.2h-9.7V124.6z"/>
<path class="st0" d="M50.3,143.6v-28.3c0-1.1,0.4-2.2,1.2-2.9c1.6-1.6,4.2-1.6,5.8,0c0.8,0.8,1.2,1.8,1.2,2.9v3.7
	c0.9-2.1,2.2-4.1,3.9-5.7c1.4-1.4,3.2-2.1,5.1-2.2c1.1-0.1,2.2,0.3,3,1.1c0.7,0.8,1.1,1.9,1.1,2.9c0,1-0.3,1.9-0.9,2.6
	c-0.6,0.7-1.4,1.2-2.3,1.3c-2.9,0.4-5.4,2-7.2,4.3c-1.8,2.3-2.6,5.5-2.6,9.7v10.6c0,1.1-0.4,2.1-1.2,2.9c-0.8,0.8-1.8,1.2-2.9,1.2
	c-2.2,0-4-1.7-4.1-3.9C50.3,143.8,50.3,143.7,50.3,143.6L50.3,143.6z"/>
<path class="st0" d="M86.7,148.1c-3.3,0.1-6.4-0.9-9-2.9c-2.5-2-3.8-5-3.7-8.1v-0.1c0-3.7,1.3-6.6,4-8.6c2.7-2,6.3-3,10.8-2.9
	c3.3,0,6.5,0.5,9.6,1.5V126c0.1-2.2-0.7-4.3-2.3-5.8c-1.5-1.3-3.7-2-6.6-2c-2.7,0-5.4,0.4-7.9,1.4c-0.4,0.1-0.9,0.2-1.3,0.2
	c-0.9,0-1.8-0.4-2.4-1c-1.3-1.3-1.4-3.5,0-4.9c0.4-0.4,0.8-0.6,1.3-0.8c3.7-1.4,7.6-2.1,11.5-2.1c5.3,0,9.3,1.3,11.9,4
	c2.6,2.5,3.9,6.2,3.9,11v17.6c0,1.1-0.4,2.1-1.2,2.8c-0.8,0.7-1.8,1.1-2.8,1.1c-1.1,0-2.1-0.3-2.9-1c-0.7-0.6-1.1-1.5-1.1-2.4v-1.4
	C95.5,146.3,91.2,148.3,86.7,148.1z M89,142.1c2.5,0.1,4.9-0.6,6.8-2.1c1.7-1.3,2.8-3.4,2.7-5.5V132c-2.6-1-5.4-1.5-8.1-1.4
	c-2.2-0.1-4.3,0.4-6.2,1.6c-1.4,1-2.3,2.6-2.2,4.4v0.1c-0.1,1.6,0.7,3.1,2,4C85.5,141.7,87.2,142.2,89,142.1L89,142.1z"/>
<path class="st0" d="M132.7,148.2c-5,0.1-9.8-1.8-13.2-5.4c-3.5-3.5-5.4-8.2-5.3-13.1v-0.1c-0.1-4.9,1.8-9.7,5.3-13.2
	c3.5-3.6,8.3-5.6,13.3-5.5c4.6-0.1,9.1,1.5,12.5,4.5c0.8,0.7,1.3,1.8,1.3,2.8c0,1-0.4,2-1.1,2.6c-0.7,0.7-1.7,1.1-2.7,1.1
	c-0.9,0-1.7-0.3-2.4-0.8c-2.1-1.9-4.8-2.9-7.7-3c-2.8,0-5.5,1.2-7.4,3.3c-2,2.2-3.1,5.1-3,8.1v0.1c-0.1,3,1,5.9,3,8.1
	c1.9,2.2,4.8,3.4,7.7,3.3c3,0,5.8-1.2,8-3.2c1.4-1.2,3.5-1.2,4.7,0.2c0.7,0.7,1,1.6,1,2.5c0,1-0.4,1.9-1.1,2.6
	C142.2,146.5,137.5,148.3,132.7,148.2z"/>
<path class="st0" d="M172.4,148c-6.4,0-12.7-2.1-17.8-6c-1.7-1.3-2.1-3.7-0.9-5.4c0.1-0.2,0.3-0.3,0.4-0.5c0.7-0.7,1.7-1.1,2.8-1.1
	c0.9,0,1.7,0.2,2.4,0.8c3.7,3.1,8.4,4.8,13.3,4.9c2.2,0.1,4.3-0.5,6.1-1.7c1.4-1,2.3-2.6,2.3-4.3v-0.1c0-1.7-0.8-3.3-2.2-4.2
	c-1.4-1-4.3-2-8.5-3c-2.3-0.5-4.6-1.2-6.8-2c-1.7-0.6-3.4-1.5-4.9-2.6c-1.4-1-2.5-2.4-3.1-4c-0.7-1.8-1-3.6-1-5.5V113
	c-0.1-3.8,1.6-7.5,4.5-9.9c3-2.6,6.9-3.8,11.6-3.8c5.3-0.1,10.6,1.5,15,4.4c1.2,0.7,1.9,2,1.8,3.3c0,1-0.4,2-1.1,2.7
	c-0.7,0.7-1.7,1.1-2.8,1.1c-0.8,0-1.5-0.2-2.2-0.6c-3.2-2.2-7-3.5-10.9-3.6c-2-0.1-4,0.5-5.6,1.6c-1.3,0.9-2.1,2.4-2.1,4v0.1
	c-0.1,1.7,0.8,3.4,2.3,4.3c1.5,1,4.5,2.1,9,3.2c5.2,1.3,9.1,2.9,11.5,5c2.4,2.1,3.7,5,3.7,8.8v0.1c0.2,4-1.6,7.8-4.7,10.4
	C181.5,146.7,177.5,148,172.4,148z"/>
<path class="st0" d="M229.3,115.3v28.3c0,1.1-0.4,2.1-1.2,2.9c-1.6,1.6-4.2,1.6-5.8,0c-0.8-0.7-1.2-1.8-1.2-2.9v-1.8
	c-2.8,4.2-6.6,6.3-11.2,6.3c-4,0-7.1-1.2-9.4-3.7s-3.4-5.8-3.4-10v-19c0-1.1,0.4-2.1,1.2-2.9c0.7-0.8,1.8-1.2,2.9-1.2
	c1.1,0,2.2,0.4,2.9,1.2c0.8,0.8,1.2,1.8,1.2,2.9V132c-0.1,2.3,0.6,4.6,2,6.4c1.5,1.6,3.5,2.4,5.7,2.3c2.2,0.1,4.3-0.8,5.8-2.3
	c1.6-1.8,2.4-4.1,2.2-6.5v-16.5c0-1.1,0.4-2.1,1.2-2.9c1.6-1.6,4.3-1.6,5.9,0C228.9,113.2,229.3,114.2,229.3,115.3L229.3,115.3z"/>
<path class="st0" d="M238.6,102.4V102c-0.1-1.2,0.4-2.3,1.3-3c2-1.4,4.7-1.4,6.7,0c0.9,0.7,1.4,1.8,1.3,2.9v0.4
	c0,1.1-0.4,2.2-1.3,2.9c-2,1.5-4.7,1.5-6.7,0C239,104.6,238.5,103.5,238.6,102.4z M239.2,143.6v-28.3c0-1.1,0.4-2.2,1.2-2.9
	c0.8-0.8,1.8-1.2,2.9-1.2c2.3,0,4.1,1.9,4.1,4.1v28.3c0,1.1-0.4,2.1-1.2,2.9c-0.8,0.8-1.8,1.2-2.9,1.2c-2.2,0-4-1.7-4.1-3.9
	C239.2,143.7,239.2,143.7,239.2,143.6L239.2,143.6z"/>
<path class="st0" d="M269.8,148c-6.9,0-10.3-3.5-10.3-10.5v-18.9h-1.4c-1.9,0.2-3.7-1.2-3.9-3.1c-0.2-1.9,1.2-3.7,3.1-3.9
	c0.2,0,0.5,0,0.7,0h1.4v-6.1c0-1.1,0.4-2.1,1.2-2.9c0.8-0.8,1.8-1.2,2.9-1.2c2.2,0,4,1.7,4.1,3.9c0,0,0,0.1,0,0.1v6.1h6.4
	c0.9,0,1.9,0.3,2.5,1c1.4,1.4,1.4,3.6,0,5c0,0,0,0,0,0c-0.7,0.7-1.6,1-2.5,1h-6.4v17.5c0,3,1.5,4.5,4.4,4.5c0.4,0,0.8,0,1.3-0.1
	l0.8-0.1c0.9,0,1.8,0.4,2.4,1c1.3,1.3,1.4,3.5,0,4.8c-0.3,0.3-0.7,0.6-1.2,0.8C273.6,147.7,271.7,148,269.8,148z"/>
<path class="st0" d="M312.6,143.4c-3.5,3.2-8.1,4.9-12.9,4.7c-9.9,0.3-18.1-7.5-18.4-17.3c0-0.4,0-0.8,0-1.3v-0.1
	c-0.1-4.9,1.7-9.6,5-13.2c6.3-6.9,17-7.4,23.9-1.1c1.6,1.4,2.9,3.2,3.8,5.1c1.2,2.6,1.8,5.4,1.8,8.2c0,1.1-0.4,2.1-1.1,2.8
	c-0.7,0.7-1.7,1.1-2.7,1.1h-22.4c0.3,2.6,1.5,4.9,3.5,6.7c1.9,1.6,4.3,2.5,6.8,2.4c3.1,0,6.1-1.1,8.5-3.1c0.6-0.5,1.3-0.7,2.1-0.8
	c0.9,0,1.7,0.3,2.3,0.9c0.6,0.6,1,1.5,1,2.4C313.6,141.9,313.2,142.8,312.6,143.4z M289.5,127h18.4c-0.2-2.5-1.1-4.9-2.8-6.8
	c-1.6-1.8-3.9-2.7-6.3-2.6c-2.4-0.1-4.6,0.9-6.2,2.6C290.8,122.1,289.7,124.5,289.5,127z"/>
<g>
	<defs>
		<path id="SVGID_1_" d="M172.1,1c-12.2,0-22.9,5.9-28.8,14.8H143c-11.3,0-21.1,6.2-25.4,15.1C103.7,32.2,92.8,43,92.8,56.1
			c0.1,6.3,2.6,12.3,7,16.7c3.6-0.6,7.3-1.2,11.1-1.7c-5.6-2.9-9.3-8.3-9.3-14.5c0-9.3,8.2-16.8,18.4-16.8c1.4,0,2.7,0.1,4.1,0.4
			c0.8-8.6,8.7-15.4,18.3-15.4c1.6,0,3.2,0.2,4.7,0.6C150.4,16,160,9.1,171.5,9.1c12,0,22.1,7.7,24.7,17.9
			c13.8,0.3,24.9,10.5,24.9,23.2c0,8.9-5.5,16.6-13.6,20.5c4.3,0.5,8.6,1.1,12.6,1.7c6.2-5.5,9.7-13.4,9.8-21.7
			c0-14.7-11.3-27-26.5-30C198.6,9.2,186.4,1,172.1,1z"/>
	</defs>
	<use xlink:href="#SVGID_1_"  style="overflow:visible;fill:#FFFFFF;"/>
	<clipPath id="SVGID_2_">
		<use xlink:href="#SVGID_1_"  style="overflow:visible;"/>
	</clipPath>
	<g class="st1">
		
			<rect x="87.3" y="-11.1" transform="matrix(0.9826 -0.1857 0.1857 0.9826 -4.0474 30.6034)" class="st0" width="148" height="96"/>
	</g>
</g>
<g>
	<defs>
		<rect id="SVGID_3_" x="-31.3" y="1" width="381.5" height="214"/>
	</defs>
	<clipPath id="SVGID_4_">
		<use xlink:href="#SVGID_3_"  style="overflow:visible;"/>
	</clipPath>
	<g class="st2">
		<path class="st0" d="M259.1,81.5c-23.2-8-58.2-13.5-97.4-13.5s-74.3,5.5-97.4,13.5c32.3-4.1,64.9-6.1,97.4-6
			C194.2,75.4,226.8,77.4,259.1,81.5"/>
	</g>
</g>
</svg>
